<svg width="19" height="18" viewBox="0 0 19 18" fill="none" xmlns="http://www.w3.org/2000/svg">
<path d="M8.54894 1.92705C8.84829 1.00574 10.1517 1.00574 10.4511 1.92705L11.6329 5.56434C11.7668 5.97636 12.1507 6.25532 12.5839 6.25532H16.4084C17.3771 6.25532 17.7799 7.49494 16.9962 8.06434L13.9021 10.3123C13.5516 10.5669 13.405 11.0183 13.5389 11.4303L14.7207 15.0676C15.02 15.9889 13.9656 16.7551 13.1818 16.1857L10.0878 13.9377C9.7373 13.6831 9.2627 13.683 8.91221 13.9377L5.81815 16.1857C5.03444 16.7551 3.97996 15.9889 4.27931 15.0676L5.46114 11.4303C5.59501 11.0183 5.44835 10.567 5.09787 10.3123L2.00381 8.06434C1.22009 7.49494 1.62287 6.25532 2.59159 6.25532H6.41606C6.84929 6.25532 7.23324 5.97636 7.36712 5.56434L8.54894 1.92705Z" stroke="white" stroke-width="2" stroke-linejoin="round"/>
</svg>
