<svg width="24" height="24" viewBox="0 0 24 24" fill="none" xmlns="http://www.w3.org/2000/svg">
<path fill-rule="evenodd" clip-rule="evenodd" d="M5.33316 2.02236C7.30655 0.703788 9.62663 0 12 0C15.1814 0.00375835 18.2315 1.26925 20.4811 3.51887C22.7308 5.76849 23.9962 8.81855 24 12C24 14.3734 23.2962 16.6934 21.9776 18.6668C20.6591 20.6402 18.7849 22.1783 16.5922 23.0865C14.3995 23.9948 11.9867 24.2324 9.65892 23.7694C7.33115 23.3064 5.19295 22.1635 3.51472 20.4853C1.83649 18.807 0.693604 16.6688 0.230582 14.3411C-0.232441 12.0133 0.00519948 9.60051 0.913451 7.4078C1.8217 5.21508 3.35977 3.34094 5.33316 2.02236ZM6.59552 20.0884C8.19525 21.1573 10.076 21.7278 12 21.7278C14.5791 21.7248 17.0516 20.6989 18.8753 18.8753C20.6989 17.0516 21.7248 14.579 21.7278 12C21.7278 10.076 21.1573 8.19525 20.0884 6.59552C19.0195 4.99579 17.5002 3.74895 15.7227 3.01267C13.9451 2.2764 11.9892 2.08376 10.1022 2.45911C8.21519 2.83446 6.48186 3.76094 5.1214 5.1214C3.76094 6.48186 2.83446 8.21519 2.45911 10.1022C2.08376 11.9892 2.2764 13.9451 3.01268 15.7227C3.74895 17.5002 4.99579 19.0195 6.59552 20.0884ZM13.1363 11.4461L17.2461 14.6726V14.6754C17.3672 14.7662 17.469 14.8803 17.5454 15.0109C17.6218 15.1416 17.6713 15.2861 17.691 15.4362C17.7108 15.5862 17.7004 15.7387 17.6604 15.8847C17.6204 16.0306 17.5516 16.1671 17.4581 16.2862C17.3647 16.4052 17.2483 16.5043 17.116 16.5778C16.9837 16.6512 16.838 16.6975 16.6876 16.7139C16.5371 16.7303 16.3849 16.7164 16.2399 16.6731C16.0949 16.6299 15.9599 16.5581 15.8431 16.4619L11.2987 12.8946C11.1631 12.7882 11.0536 12.6524 10.9783 12.4974C10.903 12.3424 10.864 12.1723 10.8641 11.9999V4.45627C10.8641 4.15496 10.9838 3.86599 11.1969 3.65293C11.4099 3.43987 11.6989 3.32017 12.0002 3.32017C12.3015 3.32017 12.5905 3.43987 12.8036 3.65293C13.0166 3.86599 13.1363 4.15496 13.1363 4.45627V11.4461Z" fill="#9A7CFF"/>
</svg>
