<svg width="24" height="24" viewBox="0 0 24 24" fill="none" xmlns="http://www.w3.org/2000/svg">
<path fill-rule="evenodd" clip-rule="evenodd" d="M12 0C5.3772 0 0 5.3772 0 12C0 18.6228 5.3772 24 12 24C18.6228 24 24 18.6228 24 12C24 5.3772 18.6228 0 12 0ZM12 2.4C17.298 2.4 21.6 6.702 21.6 12C21.6 17.298 17.298 21.6 12 21.6C6.7008 21.6 2.4 17.298 2.4 12C2.4 6.702 6.7008 2.4 12 2.4ZM9.87839 13.6968L15.8184 7.7568C16.2864 7.2888 17.0472 7.2888 17.5152 7.7568C17.9832 8.226 17.9832 8.9856 17.5152 9.4548L10.7268 16.2432C10.2588 16.7112 9.498 16.7112 9.03 16.2432L6.4848 13.6968C6.0156 13.2288 6.0156 12.468 6.4848 12C6.9528 11.532 7.7124 11.532 8.1816 12L9.87839 13.6968Z" fill="#9A7CFF"/>
</svg>
