<svg width="16" height="16" viewBox="0 0 16 16" fill="none" xmlns="http://www.w3.org/2000/svg">
<path d="M7.99922 6.3999C8.44105 6.3999 8.79921 6.75806 8.79921 7.19989V11.1999C8.79921 11.6417 8.44105 11.9999 7.99922 11.9999C7.55739 11.9999 7.19922 11.6417 7.19922 11.1999V7.19989C7.19922 6.75806 7.55739 6.3999 7.99922 6.3999Z" fill="black"/>
<path d="M7.99922 4C8.44105 4 8.79921 4.35816 8.79921 4.79999C8.79921 5.24182 8.44105 5.59999 7.99922 5.59999C7.55739 5.59999 7.19922 5.24182 7.19922 4.79999C7.19922 4.35816 7.55739 4 7.99922 4Z" fill="black"/>
<path fill-rule="evenodd" clip-rule="evenodd" d="M0 8C0 3.58171 3.58172 0 8 0C12.4183 0 16 3.58171 16 8C16 12.4183 12.4183 16 8 16C3.58172 16 0 12.4183 0 8ZM8 1.60001C4.46538 1.60001 1.59999 4.46537 1.59999 8C1.59999 11.5346 4.46538 14.4 8 14.4C11.5346 14.4 14.4 11.5346 14.4 8C14.4 4.46537 11.5346 1.60001 8 1.60001Z" fill="black"/>
</svg>
