<svg width="138" height="28" viewBox="0 0 138 28" fill="none" xmlns="http://www.w3.org/2000/svg">
<path d="M77.7225 15.5724C76.9889 23.3999 73.3211 27.2478 63.785 27.9443C54.2489 28.6408 49.1138 22.7034 49.8475 15.5724C50.5811 8.44138 55.7159 3.03475 63.785 1.64173C71.8541 0.248705 78.4562 7.74485 77.7225 15.5724Z" fill="#F6BF32"/>
<path d="M65.6524 15.666C64.6849 18.8604 61.6519 21.4341 58.2091 20.3997C54.7664 19.3653 53.4263 16.3489 54.6356 12.3559C55.7042 8.8275 58.6361 6.5878 62.0788 7.62221C65.5216 8.65661 66.6198 12.4716 65.6524 15.666Z" fill="white"/>
<path d="M60.0734 13.4883C59.9088 15.1112 58.7948 16.3262 57.5853 16.2019C56.3757 16.0777 55.5287 14.6613 55.6933 13.0383C55.8579 11.4153 56.9719 10.2004 58.1815 10.3247C59.391 10.4489 60.2381 11.8653 60.0734 13.4883Z" fill="black"/>
<path d="M68.5352 1.92591C67.9768 2.70031 67.0441 3.12561 66.452 2.87585C65.8598 2.62609 65.8324 1.79585 66.3907 1.02146C66.9491 0.247062 67.8817 -0.178239 68.4739 0.0715199C69.0661 0.321278 69.0935 1.15152 68.5352 1.92591Z" fill="#F6BF32"/>
<path d="M70.4662 3.50205C69.327 4.49273 68.0485 4.7176 67.6106 4.00431C67.1727 3.29102 67.7413 1.90968 68.8806 0.919001C70.0199 -0.0716784 71.2984 -0.296547 71.7362 0.416742C72.1741 1.13003 71.6055 2.51137 70.4662 3.50205Z" fill="#F6BF32"/>
<path d="M73.0831 4.25102C71.8895 4.63014 70.7149 4.35379 70.4595 3.63377C70.2041 2.91375 70.9647 2.02273 72.1583 1.64361C73.3518 1.26449 74.5264 1.54085 74.7818 2.26087C75.0372 2.98088 74.2767 3.87191 73.0831 4.25102Z" fill="#F6BF32"/>
<path d="M4.14815 0C1.55556 0 0 1.03704 0 3.62963V28H5.18519C9.33333 28 10.3704 24.3704 10.3704 22.2963V17.6296H17.1111C19.7037 17.6296 20.7407 16.0741 20.7407 15.037V12.4444C20.7407 11.9259 20.2222 10.8889 19.1852 10.8889H10.3704V7.25926H19.1852C22.8148 7.25926 22.2963 4.14815 22.2963 2.07407C22.2963 0 21.7778 0 19.7037 0H4.14815Z" fill="#00D9B2"/>
<path fill-rule="evenodd" clip-rule="evenodd" d="M23.8516 3.62963C23.8516 1.03704 25.4071 0 27.9997 0H36.8145C44.0738 0 48.2219 2.59259 48.2219 8.2963C48.2219 14 44.7651 15.7284 43.0367 16.5926H42.5182C45.1108 18.6667 46.8738 21.7778 47.7034 23.8519C48.7405 26.4444 47.1849 28 45.1108 28H38.3701C38.3701 28 38.3701 25.4074 36.8145 22.2963C36.0566 20.7804 35.0524 19.3876 34.2219 18.3578V22.2963C34.2219 24.3704 33.1849 28 29.0367 28H23.8516V3.62963ZM35.4733 10.8716C36.2882 11.5736 38.0002 10.9221 39.2971 9.41648C40.594 7.91084 40.9847 6.1212 40.1698 5.41922C39.3548 4.71723 37.6428 5.36872 36.3459 6.87436C35.049 8.38 34.6583 10.1696 35.4733 10.8716Z" fill="#00D9B2"/>
<path fill-rule="evenodd" clip-rule="evenodd" d="M115.416 1.55556C112.1 4.50149 109.978 8.9267 109.978 14C109.978 19.0733 112.1 23.5977 115.416 26.5436C117.056 28.0001 118.175 28.0001 120.302 28H120.348H127.607C129.914 28 131.571 27.5441 133.311 25.9259C136.481 22.9773 137.978 18.9427 137.978 14C137.978 9.79918 136.731 5.97474 134.348 3.11111C131.994 0.282314 130.2 0 127.607 0H120.348C118.597 0 116.763 0.359009 115.416 1.55556ZM121.942 20.8467C123.395 21.355 125.609 18.8059 126.887 15.1531C128.165 11.5003 128.023 8.12707 126.57 7.61873C125.117 7.11039 122.903 9.65948 121.625 13.3123C120.347 16.9651 120.489 20.3383 121.942 20.8467Z" fill="#00D9B2"/>
<path d="M79.333 1.51351V28H85.2357C88.7168 28 89.7763 25.427 89.7763 24.2162V15.1351C90.6093 16.0662 91.8143 18.6667 93.3699 18.6667C94.9254 18.6667 97.9997 14.7778 97.9997 14.7778V28H103.902C107.383 28 108.443 25.427 108.443 24.2162C108.443 24.2162 108.5 2.45315 108.443 1.86667C108.386 1.28018 108.033 0 105.555 0C103.076 0 102.666 0 102.666 0C100.333 0 99.5552 0.777778 98.7775 1.55556C98.1649 2.16812 95.5108 4.9 94.3032 6.16086L89.4735 0H80.9979C80.3925 0 79.333 0 79.333 1.51351Z" fill="#00D9B2"/>
</svg>
