<svg width="19" height="24" viewBox="0 0 19 24" fill="none" xmlns="http://www.w3.org/2000/svg">
<path fill-rule="evenodd" clip-rule="evenodd" d="M17.6658 19.6714C17.6658 19.6714 18.8231 19.5779 18.8231 18.2816C18.8231 16.9852 16.0717 13.784 16.0717 13.784C16.0717 13.784 16.0717 10.1859 16.0717 8.1221C16.0717 5.91766 14.309 4.51585 12.0664 3.91546C12.1971 3.58822 12.2689 3.23123 12.2689 2.85741C12.2689 1.27951 10.9897 0 9.41153 0C7.83332 0 6.55411 1.27951 6.55411 2.85741C6.55411 3.23123 6.62593 3.58822 6.75635 3.91546C4.51405 4.51585 2.75134 5.91766 2.75134 8.1221C2.75134 10.1859 2.75134 13.784 2.75134 13.784C2.75134 13.784 0 16.9852 0 18.2816C0 19.5779 1.15721 19.6714 1.15721 19.6714H17.6658ZM9.41153 1.50458C10.1586 1.50458 10.7644 2.11038 10.7644 2.85741C10.7644 3.60475 10.1586 4.21025 9.41153 4.21025C8.6645 4.21025 8.0587 3.60475 8.0587 2.85741C8.0587 2.11038 8.6645 1.50458 9.41153 1.50458ZM12.268 21.0338C12.2365 22.6775 10.9696 24 9.41153 24C7.85346 24 6.58657 22.6775 6.55502 21.0338H12.268Z" fill="#F6BF32"/>
</svg>
