<svg width="15" height="17" viewBox="0 0 15 17" fill="none" xmlns="http://www.w3.org/2000/svg">
<circle cx="7.5" cy="7.5" r="7.5" fill="#704BEA"/>
<path d="M6.653 9.173H8.083C7.907 7.655 10.316 7.457 10.316 5.851C10.316 4.388 9.15 3.64 7.555 3.64C6.378 3.64 5.41 4.179 4.706 4.993L5.608 5.818C6.147 5.257 6.697 4.949 7.368 4.949C8.237 4.949 8.765 5.323 8.765 5.994C8.765 7.061 6.422 7.446 6.653 9.173ZM7.379 12.11C7.929 12.11 8.347 11.703 8.347 11.131C8.347 10.559 7.929 10.163 7.379 10.163C6.818 10.163 6.4 10.559 6.4 11.131C6.4 11.703 6.807 12.11 7.379 12.11Z" fill="white"/>
</svg>
