<svg width="15" height="21" viewBox="0 0 15 21" fill="none" xmlns="http://www.w3.org/2000/svg">
<circle cx="7.5" cy="9.5" r="7.5" fill="#FF3D00"/>
<path d="M9.018 4.822L8.738 11.528H6.708L6.428 4.822H9.018ZM7.758 15.112C7.338 15.112 6.99267 14.9907 6.722 14.748C6.46067 14.496 6.33 14.188 6.33 13.824C6.33 13.4507 6.46067 13.138 6.722 12.886C6.99267 12.634 7.338 12.508 7.758 12.508C8.16867 12.508 8.50467 12.634 8.766 12.886C9.03667 13.138 9.172 13.4507 9.172 13.824C9.172 14.188 9.03667 14.496 8.766 14.748C8.50467 14.9907 8.16867 15.112 7.758 15.112Z" fill="white"/>
</svg>
