<svg width="48" height="48" viewBox="0 0 48 48" fill="none" xmlns="http://www.w3.org/2000/svg">
<g clip-path="url(#clip0_696_19067)">
<path d="M23.9961 0C17.6331 0.00728278 11.5329 2.53819 7.03357 7.03748C2.53428 11.5368 0.00337653 17.637 -0.00390625 24C0.00264961 30.3632 2.53332 36.4639 7.03277 40.9633C11.5322 45.4628 17.6329 47.9934 23.9961 48C30.3593 47.9934 36.46 45.4628 40.9594 40.9633C45.4589 36.4639 47.9895 30.3632 47.9961 24C47.9888 17.637 45.4579 11.5368 40.9586 7.03748C36.4593 2.53819 30.3591 0.00728278 23.9961 0ZM12.0621 40.7246C12.2335 40.7252 12.404 40.7011 12.5684 40.6531C15.931 39.4616 19.255 38.6031 21.0326 38.4655C21.463 38.4322 21.865 38.2378 22.1583 37.921C22.4517 37.6042 22.6147 37.1884 22.6148 36.7567V33.5923C22.6151 33.3435 22.5611 33.0976 22.4565 32.8719C22.352 32.6461 22.1994 32.4459 22.0094 32.2853C19.1669 29.8693 18.1571 24.5283 18.1571 20.3348C18.1571 15.5111 20.4134 13.0676 24.8684 13.0676C29.1114 13.0676 31.1724 15.4423 31.1724 20.3348C31.1724 25.0979 29.0674 30.5159 26.3818 32.643C26.1802 32.804 26.0174 33.0082 25.9054 33.2407C25.7935 33.4731 25.7353 33.7278 25.7351 33.9858V36.9328C25.7355 37.3519 25.8895 37.7564 26.1678 38.0697C26.4462 38.383 26.8297 38.5836 27.2458 38.6333C29.238 38.8727 32.6638 40.0229 35.2009 41.0245C35.2857 41.0477 35.3722 41.0642 35.4595 41.0741C32.0733 43.3584 28.0807 44.5765 23.9961 44.5714C19.7127 44.5697 15.5381 43.2221 12.0621 40.7191V40.7246ZM37.5288 39.4561C37.5361 39.1081 37.437 38.7662 37.2448 38.4761C37.0525 38.1859 36.7762 37.9614 36.4529 37.8326C35.3384 37.3951 31.9456 36.1018 29.161 35.4937V34.7645C32.7381 31.3992 34.5982 25.0952 34.5982 20.3348C34.5982 13.5354 31.0514 9.63907 24.8656 9.63907C18.5148 9.63907 14.7257 13.6372 14.7257 20.3348C14.7257 22.6352 15.0587 30.1885 19.1862 34.338V35.2571C16.5481 35.7833 13.9533 36.5072 11.4237 37.4226C11.0427 37.5609 10.7239 37.8314 10.5254 38.1849C10.327 38.5384 10.262 38.9514 10.3423 39.3488C8.1691 37.4259 6.42871 35.0637 5.23621 32.4183C4.04371 29.7729 3.42626 26.9045 3.42467 24.0028C3.43049 18.5484 5.59961 13.3191 9.45616 9.46202C13.3127 5.60495 18.5417 3.43513 23.9961 3.42857C29.45 3.43512 34.6786 5.60457 38.5351 9.46104C42.3915 13.3175 44.561 18.5461 44.5675 24C44.5668 26.9291 43.9387 29.824 42.7255 32.4901C41.5124 35.1561 39.7422 37.5314 37.5343 39.4561H37.5288Z" fill="#6423F1"/>
</g>
<defs>
<clipPath id="clip0_696_19067">
<rect width="48" height="48" fill="white"/>
</clipPath>
</defs>
</svg>
