<svg width="48" height="48" viewBox="0 0 48 48" fill="none" xmlns="http://www.w3.org/2000/svg">
<g clip-path="url(#clip0_227_1965)">
<path d="M23.9941 0C17.6312 0.00728278 11.5309 2.53819 7.03162 7.03748C2.53233 11.5368 0.00142341 17.637 -0.00585938 24C0.000696483 30.3632 2.53137 36.4639 7.03082 40.9633C11.5303 45.4628 17.631 47.9934 23.9941 48C30.3573 47.9934 36.458 45.4628 40.9575 40.9633C45.4569 36.4639 47.9876 30.3632 47.9941 24C47.9869 17.637 45.456 11.5368 40.9567 7.03748C36.4574 2.53819 30.3571 0.00728278 23.9941 0ZM12.0602 40.7246C12.2315 40.7252 12.402 40.7011 12.5665 40.6531C15.929 39.4616 19.253 38.6031 21.0306 38.4655C21.461 38.4322 21.8631 38.2378 22.1564 37.921C22.4497 37.6042 22.6127 37.1884 22.6128 36.7567V33.5923C22.6131 33.3435 22.5591 33.0976 22.4546 32.8719C22.35 32.6461 22.1974 32.4459 22.0074 32.2853C19.165 29.8693 18.1551 24.5283 18.1551 20.3348C18.1551 15.5111 20.4115 13.0676 24.8664 13.0676C29.1095 13.0676 31.1705 15.4423 31.1705 20.3348C31.1705 25.0979 29.0655 30.5159 26.3798 32.643C26.1782 32.804 26.0154 33.0082 25.9035 33.2407C25.7916 33.4731 25.7334 33.7278 25.7332 33.9858V36.9328C25.7336 37.3519 25.8875 37.7564 26.1659 38.0697C26.4442 38.383 26.8277 38.5836 27.2439 38.6333C29.2361 38.8727 32.6619 40.0229 35.1989 41.0245C35.2837 41.0477 35.3702 41.0642 35.4576 41.0741C32.0714 43.3584 28.0788 44.5765 23.9941 44.5714C19.7107 44.5697 15.5362 43.2221 12.0602 40.7191V40.7246ZM37.5268 39.4561C37.5342 39.1081 37.4351 38.7662 37.2428 38.4761C37.0505 38.1859 36.7742 37.9614 36.4509 37.8326C35.3365 37.3951 31.9437 36.1018 29.159 35.4937V34.7645C32.7362 31.3992 34.5963 25.0952 34.5963 20.3348C34.5963 13.5354 31.0494 9.63907 24.8637 9.63907C18.5128 9.63907 14.7238 13.6372 14.7238 20.3348C14.7238 22.6352 15.0567 30.1885 19.1842 34.338V35.2571C16.5461 35.7833 13.9513 36.5072 11.4218 37.4226C11.0407 37.5609 10.7219 37.8314 10.5235 38.1849C10.325 38.5384 10.26 38.9514 10.3404 39.3488C8.16715 37.4259 6.42675 35.0637 5.23425 32.4183C4.04175 29.7729 3.4243 26.9045 3.42271 24.0028C3.42854 18.5484 5.59766 13.3191 9.45421 9.46202C13.3108 5.60495 18.5398 3.43513 23.9941 3.42857C29.448 3.43512 34.6766 5.60457 38.5331 9.46104C42.3896 13.3175 44.559 18.5461 44.5656 24C44.5648 26.9291 43.9367 29.824 42.7236 32.4901C41.5104 35.1561 39.7403 37.5314 37.5323 39.4561H37.5268Z" fill="black" fill-opacity="0.6"/>
</g>
<defs>
<clipPath id="clip0_227_1965">
<rect width="48" height="48" fill="white"/>
</clipPath>
</defs>
</svg>
