<svg width="49" height="46" viewBox="0 0 49 46" fill="none" xmlns="http://www.w3.org/2000/svg">
<g clip-path="url(#clip0_227_1962)">
<path d="M22.8176 0.382439L2.27004 9.98722C1.58403 10.3085 1.00563 10.8191 0.603868 11.4578C0.202109 12.0966 -0.00603692 12.8367 0.00427139 13.5897C0.0145797 14.3428 0.242907 15.0769 0.662003 15.7047C1.0811 16.3324 1.67326 16.8271 2.36781 17.1298L22.9153 26.0727C23.4158 26.2895 23.9559 26.4014 24.502 26.4014C25.048 26.4014 25.5881 26.2895 26.0886 26.0727L46.6361 17.1268C47.3307 16.8241 47.9228 16.3294 48.3419 15.7017C48.761 15.074 48.9893 14.3398 48.9996 13.5868C49.0099 12.8338 48.8018 12.0937 48.4 11.4549C47.9983 10.8161 47.4199 10.3056 46.7339 9.98428L26.1834 0.382439C25.6572 0.135476 25.0825 0.00738525 24.5005 0.00738525C23.9185 0.00738525 23.3437 0.135476 22.8176 0.382439ZM3.95295 13.535L24.5005 3.91253L45.048 13.532L24.5005 22.4779L3.95295 13.535ZM45.045 33.2888C45.5189 33.068 46.0616 33.0431 46.554 33.2196C47.0463 33.3962 47.4478 33.7597 47.6701 34.2301C47.8925 34.7006 47.9176 35.2395 47.7398 35.7283C47.562 36.2171 47.1959 36.6157 46.722 36.8365L46.5828 36.9012L25.2501 45.847C24.8147 46.0288 24.3284 46.0507 23.8783 45.9088L23.7123 45.847L2.37966 36.9042C1.91231 36.7048 1.54036 36.3343 1.34121 35.8696C1.14205 35.4049 1.13101 34.8819 1.31041 34.4093C1.4898 33.9367 1.84579 33.551 2.30433 33.3325C2.76286 33.1139 3.28862 33.0793 3.77221 33.2358L3.91739 33.2917L24.4886 41.911L45.0628 33.2888H45.045Z" fill="#1D1817" fill-opacity="0.6"/>
<path d="M44.6124 23.328L24.8589 32.1532L5.10547 23.3486V26.5198C5.10473 26.8917 5.21192 27.256 5.41421 27.569C5.61651 27.882 5.90535 28.1305 6.24618 28.2848L22.8086 35.5804C23.4417 35.8976 24.1409 36.0629 24.8501 36.0629C25.5592 36.0629 26.2584 35.8976 26.8915 35.5804L43.4836 28.2701C43.8239 28.1152 44.1124 27.8666 44.3146 27.5537C44.5168 27.2408 44.6243 26.8768 44.6243 26.5051L44.6124 23.328Z" fill="#1D1817" fill-opacity="0.6"/>
</g>
<defs>
<clipPath id="clip0_227_1962">
<rect width="49" height="46" fill="white"/>
</clipPath>
</defs>
</svg>
