<svg width="69" height="69" viewBox="0 0 69 69" fill="none" xmlns="http://www.w3.org/2000/svg">
<rect width="69" height="69" rx="34.5" fill="white"/>
<g clip-path="url(#clip0_716_2274)">
<path d="M51.8384 26.6649C51.9305 26.6655 52.0187 26.7023 52.0838 26.7672C52.149 26.8322 52.1858 26.9201 52.1864 27.0119V47.8159C52.1858 47.9076 52.1489 47.9953 52.0837 48.0598C52.0185 48.1244 51.9303 48.1607 51.8384 48.1607H18.9431C18.8512 48.1607 18.7631 48.1244 18.6979 48.0598C18.6327 47.9953 18.5958 47.9076 18.5952 47.8159V27.0119C18.5958 26.9201 18.6326 26.8322 18.6978 26.7672C18.7629 26.7023 18.851 26.6655 18.9431 26.6649H51.8384ZM51.8384 24.0772H18.9431C18.5565 24.0766 18.1735 24.1521 17.8162 24.2994C17.4588 24.4466 17.1341 24.6628 16.8607 24.9354C16.5873 25.2081 16.3705 25.5318 16.2228 25.8881C16.0751 26.2445 15.9994 26.6263 16 27.0119V47.8159C15.9997 48.2014 16.0756 48.5832 16.2234 48.9394C16.3712 49.2956 16.588 49.6192 16.8614 49.8918C17.1347 50.1643 17.4593 50.3805 17.8165 50.5279C18.1737 50.6753 18.5566 50.751 18.9431 50.7507H51.8384C52.2252 50.7513 52.6083 50.6758 52.9658 50.5285C53.3232 50.3813 53.648 50.1652 53.9216 49.8926C54.1952 49.6199 54.4122 49.2962 54.5601 48.9399C54.7081 48.5835 54.7841 48.2016 54.7838 47.8159V27.0119C54.7841 26.6262 54.7081 26.2443 54.5601 25.888C54.4122 25.5316 54.1952 25.2079 53.9216 24.9353C53.648 24.6627 53.3232 24.4466 52.9658 24.2993C52.6083 24.1521 52.2252 24.0766 51.8384 24.0772Z" fill="#1D1817"/>
<path d="M51.8384 26.6649C51.9305 26.6655 52.0187 26.7023 52.0838 26.7672C52.149 26.8322 52.1858 26.9201 52.1864 27.0119V47.8159C52.1858 47.9076 52.1489 47.9953 52.0837 48.0598C52.0185 48.1244 51.9303 48.1607 51.8384 48.1607H18.9431C18.8512 48.1607 18.7631 48.1244 18.6979 48.0598C18.6327 47.9953 18.5958 47.9076 18.5952 47.8159V27.0119C18.5958 26.9201 18.6326 26.8322 18.6978 26.7672C18.7629 26.7023 18.851 26.6655 18.9431 26.6649H51.8384M51.8384 24.0772H18.9431C18.5565 24.0766 18.1735 24.1521 17.8162 24.2994C17.4588 24.4466 17.1341 24.6628 16.8607 24.9354C16.5873 25.2081 16.3705 25.5318 16.2228 25.8881C16.0751 26.2445 15.9994 26.6263 16 27.0119V47.8159C15.9997 48.2014 16.0756 48.5832 16.2234 48.9394C16.3712 49.2956 16.588 49.6192 16.8614 49.8918C17.1347 50.1643 17.4593 50.3805 17.8165 50.5279C18.1737 50.6753 18.5566 50.751 18.9431 50.7507H51.8384C52.2252 50.7513 52.6083 50.6758 52.9658 50.5285C53.3232 50.3813 53.648 50.1652 53.9216 49.8926C54.1952 49.6199 54.4122 49.2962 54.5601 48.9399C54.7081 48.5835 54.7841 48.2016 54.7838 47.8159V27.0119C54.7841 26.6262 54.7081 26.2443 54.5601 25.888C54.4122 25.5316 54.1952 25.2079 53.9216 24.9353C53.648 24.6627 53.3232 24.4466 52.9658 24.2993C52.6083 24.1521 52.2252 24.0766 51.8384 24.0772V24.0772Z" stroke="#1D1817" stroke-width="0.5"/>
<path d="M22.0149 24.0772L22.6953 20.8729C22.7118 20.7956 22.7542 20.7262 22.8153 20.6761C22.8765 20.6259 22.953 20.5979 23.0322 20.5966C23.0572 20.5945 23.0824 20.5945 23.1075 20.5966L39.5629 24.0684H51.8386C51.9823 24.0689 52.1259 24.0785 52.2685 24.0971L23.6438 18.0641C23.4428 18.0212 23.2378 17.9997 23.0322 18C22.3568 17.9997 21.7019 18.231 21.1774 18.6551C20.6528 19.0792 20.2904 19.6703 20.1511 20.3292L19.3555 24.0772H22.0149ZM52.1555 34.3533V39.6571H43.4125C42.7072 39.6571 42.0307 39.3777 41.532 38.8803C41.0332 38.383 40.753 37.7085 40.753 37.0052C40.753 36.3019 41.0332 35.6273 41.532 35.13C42.0307 34.6327 42.7072 34.3533 43.4125 34.3533H52.1555ZM54.7529 31.7677H43.4125C42.7228 31.7677 42.0399 31.9032 41.4028 32.1664C40.7657 32.4297 40.1868 32.8155 39.6992 33.3019C39.2117 33.7882 38.825 34.3656 38.5613 35.001C38.2976 35.6365 38.162 36.3175 38.1623 37.0052C38.162 37.6928 38.2976 38.3737 38.5613 39.009C38.8251 39.6443 39.2118 40.2215 39.6994 40.7077C40.187 41.1939 40.7659 41.5795 41.403 41.8425C42.0401 42.1055 42.7229 42.2407 43.4125 42.2404H54.7529V31.7677Z" fill="#1D1817" stroke="#1D1817" stroke-width="0.5"/>
<path d="M43.9959 35.509C43.599 35.5096 43.2185 35.6673 42.938 35.9474C42.6575 36.2275 42.5 36.6071 42.5 37.0029C42.5 37.3988 42.6575 37.7784 42.938 38.0585C43.2185 38.3386 43.599 38.4962 43.9959 38.4968C44.3933 38.4968 44.7744 38.3394 45.0553 38.0593C45.3363 37.7791 45.4941 37.3991 45.4941 37.0029C45.4941 36.6067 45.3363 36.2267 45.0553 35.9466C44.7744 35.6664 44.3933 35.509 43.9959 35.509Z" fill="#1D1817"/>
</g>
<defs>
<clipPath id="clip0_716_2274">
<rect width="41" height="35" fill="white" transform="translate(14 17)"/>
</clipPath>
</defs>
</svg>
