<svg width="16" height="16" viewBox="0 0 16 16" fill="none" xmlns="http://www.w3.org/2000/svg">
<path d="M7.37216 9.89306L9.89599 7.36923C9.97911 7.28643 10.0451 7.18805 10.0902 7.07972C10.1352 6.97139 10.1585 6.85524 10.1586 6.73791C10.1587 6.62058 10.1357 6.50438 10.0908 6.39597C10.046 6.28755 9.98019 6.18904 9.89723 6.10608C9.81426 6.02312 9.71575 5.95733 9.60734 5.91248C9.49892 5.86764 9.38272 5.84461 9.26539 5.84473C9.14807 5.84484 9.03191 5.86809 8.92359 5.91315C8.81526 5.95821 8.71688 6.02419 8.63408 6.10732L6.11024 8.63115C6.02712 8.71395 5.96114 8.81233 5.91608 8.92066C5.87102 9.02899 5.84777 9.14514 5.84766 9.26247C5.84754 9.37979 5.87057 9.49599 5.91541 9.60441C5.96026 9.71282 6.02604 9.81133 6.10901 9.8943C6.19197 9.97726 6.29048 10.043 6.3989 10.0879C6.50731 10.1327 6.62351 10.1558 6.74084 10.1556C6.85817 10.1555 6.97432 10.1323 7.08265 10.0872C7.19098 10.0422 7.28936 9.97618 7.37216 9.89306Z" fill="#9A7CFF"/>
<path d="M10.9484 2.52421e-05C10.2841 -0.00208039 9.62596 0.127569 9.01209 0.381473C8.39823 0.635376 7.8408 1.00849 7.37208 1.47923L5.68837 3.16295C5.60524 3.24575 5.53927 3.34413 5.49421 3.45246C5.44915 3.56079 5.4259 3.67694 5.42578 3.79427C5.42567 3.91159 5.44869 4.02779 5.49354 4.13621C5.53838 4.24463 5.60417 4.34314 5.68713 4.4261C5.7701 4.50906 5.8686 4.57485 5.97702 4.61969C6.08544 4.66454 6.20164 4.68756 6.31896 4.68745C6.43629 4.68733 6.55244 4.66408 6.66077 4.61902C6.7691 4.57397 6.86748 4.50799 6.95028 4.42486L8.634 2.74115C9.24786 2.12806 10.0801 1.78383 10.9476 1.78411C11.8152 1.7844 12.6472 2.12919 13.2606 2.74268C13.8741 3.35618 14.2188 4.18816 14.2191 5.05575C14.2193 5.92333 13.875 6.75551 13.2619 7.36933L11.5782 9.05305C11.4953 9.1359 11.4296 9.23427 11.3847 9.34253C11.3399 9.45079 11.3168 9.56682 11.3168 9.684C11.3168 9.80118 11.3399 9.91722 11.3847 10.0255C11.4296 10.1337 11.4953 10.2321 11.5782 10.315C11.661 10.3978 11.7594 10.4635 11.8677 10.5084C11.9759 10.5532 12.092 10.5763 12.2091 10.5763C12.3263 10.5763 12.4423 10.5532 12.5506 10.5084C12.6589 10.4635 12.7572 10.3978 12.8401 10.315L14.5238 8.63125C15.2313 7.92429 15.7132 7.02333 15.9086 6.04239C16.1039 5.06146 16.0038 4.04462 15.621 3.12058C15.2382 2.19653 14.5899 1.40679 13.7582 0.851314C12.9264 0.295835 11.9486 -0.000425122 10.9484 2.52421e-05Z" fill="#9A7CFF"/>
<path d="M5.05802 15.9998C5.72225 16.002 6.38031 15.8725 6.99413 15.6187C7.60795 15.3649 8.16534 14.9918 8.63404 14.5212L10.3178 12.8375C10.4006 12.7546 10.4663 12.6562 10.5112 12.548C10.556 12.4397 10.5791 12.3237 10.5791 12.2065C10.5791 12.0893 10.556 11.9733 10.5112 11.865C10.4663 11.7568 10.4006 11.6584 10.3177 11.5755C10.2349 11.4927 10.1365 11.427 10.0283 11.3821C9.92 11.3373 9.80397 11.3142 9.68679 11.3142C9.56961 11.3142 9.45358 11.3373 9.34532 11.3821C9.23706 11.427 9.13869 11.4927 9.05583 11.5755L7.37212 13.2593C7.06829 13.5634 6.70751 13.8047 6.31039 13.9694C5.91326 14.1341 5.48758 14.219 5.05766 14.2191C4.62774 14.2192 4.20202 14.1346 3.8048 13.9701C3.40759 13.8056 3.04668 13.5645 2.74269 13.2605C2.4387 12.9565 2.19759 12.5956 2.03314 12.1983C1.86869 11.8011 1.78412 11.3754 1.78427 10.9455C1.78441 10.5155 1.86926 10.0899 2.03397 9.69276C2.19869 9.29564 2.44003 8.93488 2.74422 8.63107L4.42794 6.94735C4.51107 6.86455 4.57704 6.76617 4.6221 6.65784C4.66716 6.54951 4.69041 6.43336 4.69053 6.31603C4.69064 6.19871 4.66762 6.08251 4.62277 5.97409C4.57793 5.86568 4.51214 5.76717 4.42918 5.6842C4.34622 5.60124 4.24771 5.53545 4.13929 5.49061C4.03087 5.44576 3.91467 5.42274 3.79735 5.42285C3.68002 5.42297 3.56387 5.44622 3.45554 5.49128C3.34721 5.53634 3.24883 5.60232 3.16603 5.68544L1.48231 7.36915C0.774683 8.07605 0.292689 8.977 0.0973413 9.95796C-0.0980068 10.9389 0.00207344 11.9558 0.384914 12.8798C0.767754 13.8039 1.41614 14.5936 2.248 15.149C3.07987 15.7044 4.0578 16.0005 5.05802 15.9998Z" fill="#9A7CFF"/>
</svg>
