<svg width="20" height="20" viewBox="0 0 20 20" fill="none" xmlns="http://www.w3.org/2000/svg">
<path d="M17.5996 10.3392C17.5996 11.5379 17.5996 12.7367 17.5996 13.9355C17.5996 14.3153 17.5996 14.6952 17.5996 15.075C17.5996 15.3361 17.6036 15.5957 17.571 15.8557C17.5853 15.7493 17.5995 15.643 17.6138 15.5367C17.5737 15.8326 17.4965 16.1202 17.3828 16.3964C17.4232 16.3008 17.4635 16.2053 17.5038 16.1097C17.3901 16.3784 17.2443 16.6302 17.0681 16.8627C17.1306 16.7817 17.1932 16.7008 17.2557 16.6198C17.0719 16.8576 16.8599 17.0696 16.6221 17.2534C16.703 17.1908 16.784 17.1283 16.865 17.0657C16.6324 17.242 16.3807 17.3878 16.1119 17.5015C16.2075 17.4611 16.303 17.4208 16.3986 17.3805C16.1224 17.4942 15.8348 17.5713 15.5388 17.6115C15.6452 17.5972 15.7515 17.5829 15.8578 17.5686C15.5428 17.6081 15.2231 17.5973 14.9062 17.5973C14.3782 17.5973 13.8501 17.5973 13.3221 17.5973C11.7703 17.5973 10.2184 17.5973 8.66663 17.5973C7.44039 17.5973 6.21412 17.5973 4.98788 17.5973C4.70537 17.5973 4.42321 17.6039 4.14217 17.5686C4.24852 17.5829 4.35487 17.5972 4.46122 17.6115C4.16522 17.5713 3.87762 17.4942 3.6014 17.3805C3.69695 17.4208 3.79253 17.4611 3.8881 17.5015C3.61936 17.3878 3.36756 17.242 3.13502 17.0657C3.216 17.1283 3.29695 17.1908 3.37792 17.2534C3.14012 17.0696 2.9281 16.8576 2.74425 16.6198C2.80681 16.7008 2.86937 16.7817 2.93192 16.8627C2.75567 16.6302 2.60986 16.3784 2.49618 16.1097C2.5365 16.2053 2.57684 16.3008 2.61716 16.3964C2.50346 16.1202 2.4263 15.8326 2.38616 15.5367C2.40044 15.643 2.41474 15.7494 2.42902 15.8557C2.38946 15.5407 2.40034 15.221 2.40034 14.9042C2.40034 14.3762 2.40034 13.8482 2.40034 13.3203C2.40034 11.7687 2.40034 10.2171 2.40034 8.66548C2.40034 7.4394 2.40034 6.21331 2.40034 4.98721C2.40034 4.70477 2.39373 4.42262 2.42902 4.14162C2.41474 4.24795 2.40044 4.35429 2.38616 4.46063C2.4263 4.16469 2.50346 3.8771 2.61716 3.60093C2.57684 3.69649 2.5365 3.79202 2.49618 3.88758C2.60986 3.61888 2.75567 3.36712 2.93192 3.13463C2.86937 3.2156 2.80683 3.29654 2.74425 3.3775C2.9281 3.13973 3.14012 2.92774 3.37792 2.74392C3.29695 2.80647 3.216 2.86901 3.13502 2.93156C3.36756 2.75531 3.61933 2.60952 3.8881 2.49586C3.79253 2.53617 3.69695 2.5765 3.6014 2.61682C3.87764 2.50313 4.16524 2.42599 4.46122 2.38585C4.35487 2.40013 4.24852 2.41443 4.14217 2.42871C4.60583 2.37052 5.08789 2.40003 5.55393 2.40003C6.33013 2.40003 7.10632 2.40003 7.88252 2.40003C8.47483 2.40003 9.06713 2.40003 9.65943 2.40003C10.3137 2.40003 10.8596 1.85417 10.8596 1.20001C10.8596 0.54586 10.3137 0 9.65943 0C8.4605 0 7.26156 0 6.06263 0C5.57619 0 5.08978 0 4.60333 0C3.34194 0 2.08859 0.526513 1.23212 1.4587C0.440222 2.32063 0 3.44465 0 4.61589C0 4.92121 0 5.22653 0 5.53182C0 6.93109 0 8.33033 0 9.72959C0 11.194 0 12.6583 0 14.1227C0 14.5094 0 14.8961 0 15.2827C0 16.1532 0.195997 17.0009 0.642391 17.7546C1.01175 18.3781 1.53087 18.8898 2.13358 19.2866C2.43585 19.4856 2.77729 19.6299 3.11538 19.7539C3.46808 19.8833 3.83745 19.9337 4.20918 19.9766C4.50796 20.0111 4.81589 19.9972 5.11628 19.9972C6.39545 19.9972 7.67462 19.9972 8.9538 19.9972C10.4875 19.9972 12.0212 19.9972 13.5549 19.9972C14.0473 19.9972 14.5396 19.9972 15.032 19.9972C15.5398 19.9972 16.0378 19.9776 16.538 19.8584C17.2535 19.6879 17.8855 19.3167 18.4445 18.8499C18.723 18.6173 18.9418 18.3364 19.1601 18.0484C19.3229 17.8337 19.4565 17.5978 19.5637 17.351C19.7122 17.0093 19.8436 16.6749 19.9084 16.3075C19.9607 16.0111 20 15.7073 20 15.4055C20 15.2584 20 15.1113 20 14.9643C20 13.5578 20 12.1514 20 10.7449C20 10.6097 20 10.4744 20 10.3391C20 9.68497 19.454 9.13911 18.7998 9.13911C18.1455 9.13911 17.5996 9.68502 17.5996 10.3392Z" fill="white"/>
<path d="M13.8852 2.40008C15.0939 2.40008 16.3025 2.40008 17.5111 2.40008C17.9407 2.40008 18.3703 2.40008 18.7998 2.40008C19.4541 2.40008 20 1.85422 20 1.20006C20 0.545909 19.4541 4.89533e-05 18.7998 4.89533e-05C17.5912 4.89533e-05 16.3826 4.89533e-05 15.1739 4.89533e-05C14.7444 4.89533e-05 14.3148 4.89533e-05 13.8852 4.89533e-05C13.231 4.89533e-05 12.685 0.545909 12.685 1.20006C12.685 1.85422 13.231 2.40008 13.8852 2.40008Z" fill="white"/>
<path d="M20 6.114C20 4.90554 20 3.69707 20 2.48859C20 2.05908 20 1.62957 20 1.20006C20 0.545909 19.4541 4.89533e-05 18.7998 4.89533e-05C18.1456 4.89533e-05 17.5996 0.545909 17.5996 1.20006C17.5996 2.40853 17.5996 3.61699 17.5996 4.82548C17.5996 5.25499 17.5996 5.68449 17.5996 6.114C17.5996 6.76816 18.1456 7.31402 18.7998 7.31402C19.4541 7.31402 20 6.76816 20 6.114Z" fill="white"/>
<path d="M10.8666 10.8293C11.3669 10.3291 11.8672 9.82885 12.3674 9.32862C13.4432 8.25301 14.519 7.17738 15.5948 6.10176C16.6084 5.08828 17.622 4.07483 18.6356 3.06138C18.9732 2.72379 19.3108 2.38622 19.6485 2.04862C20.1109 1.5863 20.1109 0.813879 19.6485 0.351531C19.1861 -0.110793 18.4136 -0.110793 17.9512 0.351531C17.4509 0.851765 16.9506 1.35198 16.4503 1.85221C15.3745 2.92781 14.2987 4.00344 13.223 5.07907C12.2093 6.09255 11.1957 7.106 10.1821 8.11944C9.84453 8.45704 9.50688 8.79461 9.16924 9.13221C8.70685 9.59453 8.70685 10.367 9.16924 10.8293C9.63163 11.2916 10.4042 11.2916 10.8666 10.8293Z" fill="white"/>
</svg>
